<svg 
     width="24"
     xmlns="http://www.w3.org/2000/svg" 
     viewBox="0 0 24 24">
    
    <defs>
        
        <style>
            .b{fill:none;
            stroke:#000;
            stroke-linecap:round;
            stroke-linejoin:round;}
        </style>
    
    </defs>
    
    <title>about</title>
    
    <path class="b" d="M16.44,6.28A4.5,4.5,0,1,1,12.7,2.55,4.49,4.49,0,0,1,16.44,6.28Z"/>
    
    <path class="b" d="M3.5,19.5V17a1,1,0,0,1,.36-.77A13,13,0,0,1,12,13.5a13,13,0,0,1,8.14,2.68,1,1,0,0,1,.36.77V19.5a1,1,0,0,1-1,1H4.5A1,1,0,0,1,3.5,19.5Z"/>

</svg>
