<svg 
     width="24"
     xmlns="http://www.w3.org/2000/svg" 
     viewBox="0 0 24 24">
    
    <defs>
        
        <style>
            .b{fill:none;
            stroke:#000;
            stroke-linecap:round;
            stroke-linejoin:round;}
        </style>
    
    </defs>
    
    <title>call</title>
    
    <path class="b" d="M20.5,16.77l-3.29-2.15a1.51,1.51,0,0,0-2.06.41c-.77.92-1.68,2.44-5.14-1s-2-4.4-1-5.16a1.53,1.53,0,0,0,.41-2.06L7.22,3.49c-.28-.41-.66-1.08-1.55-1a4.33,4.33,0,0,0-3.2,4.28c0,2.85,2.25,6.34,5.32,9.41s6.56,5.3,9.38,5.3a4.6,4.6,0,0,0,4.28-3.17C21.55,17.72,20.91,17.06,20.5,16.77Z"/>
    
</svg>
