<svg 
     width="24"
     xmlns="http://www.w3.org/2000/svg" 
     viewBox="0 0 24 24">
    
    <defs>
    
        <style>
            .b{fill:none;
            stroke:#000;
            stroke-linecap:round;
            stroke-linejoin:round;}
        </style>
    
    </defs>
    
    <title>home</title>
    
    <path class="b" d="M10.62,1.82,2.05,10a.86.86,0,0,0,.59,1.48h0a.85.85,0,0,1,.86.86V19.5a2,2,0,0,0,2,2H8.64a.85.85,0,0,0,.86-.86V15.36a.85.85,0,0,1,.86-.86h3.28a.85.85,0,0,1,.86.86v5.28a.85.85,0,0,0,.86.86H18.5a2,2,0,0,0,2-2V12.36a.85.85,0,0,1,.86-.86h0A.86.86,0,0,0,22,10l-8.57-8.2A2,2,0,0,0,10.62,1.82Z"/>
    
</svg>
